<svg width="93" height="30" viewBox="0 0 93 30" fill="none" xmlns="http://www.w3.org/2000/svg">
<g clip-path="url(#clip0)">
<path d="M32.7341 8.68459C32.7341 8.68459 33.0928 9.25366 33.0928 10.7382V19.7691C33.0928 21.031 32.3877 21.9464 31.8681 22.2681V22.4289C31.8681 22.4289 35.6289 22.4289 35.6289 19.0145V8.68459H32.7341Z" fill="#101010"/>
<path d="M31.7567 14.8083H28.6268V15.7732H31.7567V14.8083Z" fill="#101010"/>
<path d="M40.664 11.0598C37.4352 11.0598 36.7548 13.633 36.7548 14.9938C36.7548 16.367 37.4352 18.9278 40.664 18.9278C43.8929 18.9278 44.5733 16.3546 44.5733 14.9938C44.5609 13.633 43.8929 11.0598 40.664 11.0598ZM41.9383 14.9938C41.9383 16.9361 41.5548 18.1732 40.664 18.1732C39.7733 18.1732 39.3898 16.9361 39.3898 14.9938C39.3898 13.0515 39.7733 11.8639 40.664 11.8639C41.5548 11.8639 41.9383 13.0515 41.9383 14.9938Z" fill="#101010"/>
<path d="M49.6204 11.0598C46.7256 11.0598 45.5132 13.1505 45.5132 15.2412C45.5132 16.6887 46.2678 18.9278 48.606 18.9278C50.0534 18.9278 50.5606 17.8392 50.5606 17.8392C50.5606 17.8392 50.5606 18.9031 50.5606 19.0392C50.5606 19.9918 50.0534 20.833 48.3833 20.833C46.874 20.833 46.3297 20.3134 46.3297 20.3134L46.1565 20.5979C46.1565 20.5979 47.1585 22.0454 49.5338 22.0454C52.7503 22.0454 52.8616 19.2495 52.8616 18.0371C52.8616 16.8124 52.8616 11.8144 52.8616 11.8144C52.8616 11.8144 51.8967 11.0598 49.6204 11.0598ZM49.3977 17.6784C48.3462 17.6784 47.9132 16.6392 47.9132 14.9938C47.9132 13.3361 48.4328 11.8639 49.4225 11.8639C50.2266 11.8639 50.5482 12.3835 50.5482 13.7567C50.5482 14.8206 50.5482 15.6124 50.5482 15.934C50.5482 16.7753 50.1029 17.6784 49.3977 17.6784Z" fill="#101010"/>
<path d="M92.0411 16.7011V8.0289H89.2328C89.2328 8.0289 89.5916 8.59797 89.5916 10.0825V11.233C89.2699 11.1341 88.8988 11.0598 88.5153 11.0598C85.6204 11.0598 84.5565 13.1505 84.5565 15.2413C84.5565 16.6887 85.3112 18.9279 87.6493 18.9279C89.0596 18.9279 89.5792 17.8887 89.5916 17.8392V18.7423H92.4122C92.4122 18.7547 92.0411 18.1856 92.0411 16.7011ZM88.4534 17.6784C87.4019 17.6784 86.9689 16.6392 86.9689 14.9938C86.9689 13.3361 87.4885 11.864 88.4782 11.864C89.2575 11.864 89.5792 12.4949 89.5916 13.7691V16.1072C89.5792 16.9485 89.1462 17.6784 88.4534 17.6784Z" fill="#101010"/>
<path d="M57.2293 11.0598C55.2004 11.0598 54.1612 12.1237 54.1612 13.3237C54.1612 15.4268 57.353 15.8103 57.353 17.1217C57.353 17.9258 56.5983 18.0371 56.2643 18.0371C55.3488 18.0371 54.5942 17.0969 54.3715 16.6021L53.889 18.3464C53.889 18.3464 55.0396 18.9526 56.289 18.9526C57.687 18.9526 59.8396 18.4825 59.8396 16.2681C59.8396 14.0536 56.5736 13.8928 56.5736 12.7794C56.5736 12.4454 56.7839 12 57.4272 12C58.0458 12 58.5901 12.3464 59.1963 13.1629L59.5674 11.7031C59.5674 11.6784 58.454 11.0598 57.2293 11.0598Z" fill="#101010"/>
<path d="M24.0868 11.0598C21.1425 11.0598 20.425 13.5711 20.425 14.9938C20.425 16.4165 21.0435 18.9278 23.9879 18.9278C25.4353 18.9278 26.4002 18.2474 26.9322 17.4557L26.9569 16.9237C26.9569 16.9237 26.2147 17.567 24.8662 17.567C23.5301 17.567 22.8992 16.3175 22.9487 15.167H27.2167C27.4023 13.3485 26.7219 11.0598 24.0868 11.0598ZM24.3466 14.4866C24.124 14.4866 22.9611 14.4866 22.9611 14.4866C22.9982 13.3485 23.2209 11.8763 24.1487 11.8763C24.9033 11.8763 25.126 12.7299 25.126 13.6206C25.126 14.4495 24.5693 14.4866 24.3466 14.4866Z" fill="#101010"/>
<path d="M72.507 11.0598C69.6121 11.0598 68.3998 13.1505 68.3998 15.2412C68.3998 16.6887 69.1544 18.9278 71.4926 18.9278C72.94 18.9278 73.4472 17.8392 73.4472 17.8392C73.4472 17.8392 73.4472 18.9031 73.4472 19.0392C73.4472 19.9918 72.94 20.833 71.2699 20.833C69.7606 20.833 69.2163 20.3134 69.2163 20.3134L69.0431 20.5979C69.0431 20.5979 70.0451 22.0454 72.4204 22.0454C75.6369 22.0454 75.7482 19.2495 75.7482 18.0371C75.7482 16.8124 75.7482 11.8144 75.7482 11.8144C75.7482 11.8144 74.7833 11.0598 72.507 11.0598ZM72.2843 17.6784C71.2328 17.6784 70.7998 16.6392 70.7998 14.9938C70.7998 13.3361 71.3194 11.8639 72.3091 11.8639C73.1132 11.8639 73.4348 12.3835 73.4348 13.7567C73.4348 14.8206 73.4348 15.6124 73.4348 15.934C73.4348 16.7753 72.9895 17.6784 72.2843 17.6784Z" fill="#101010"/>
<path d="M78.7175 9.699L79.3113 10.3547L82.2186 8.96911L81.266 8.0289L78.7175 9.699Z" fill="#101010"/>
<path d="M80.536 11.0599C77.5916 11.0475 76.8494 13.5588 76.8494 14.9815C76.8494 16.4042 77.4432 18.9279 80.3999 18.9403C81.8473 18.9526 82.8123 18.2722 83.3442 17.4805L83.369 16.9485C83.369 16.9485 82.6143 17.5918 81.2782 17.5794C79.9422 17.5671 79.3236 16.3176 79.3731 15.1794L83.6535 15.2042C83.8391 13.3733 83.171 11.0722 80.536 11.0599ZM80.771 14.4867C80.5483 14.4867 79.3855 14.4743 79.3855 14.4743C79.4349 13.3361 79.6576 11.864 80.5855 11.8764C81.3401 11.8764 81.5504 12.7423 81.5504 13.6331C81.5504 14.4619 80.9937 14.4867 80.771 14.4867Z" fill="#101010"/>
<path d="M64.367 11.0598C61.4227 11.0474 60.6804 13.5587 60.6804 14.9814C60.6804 16.4041 61.2742 18.9278 64.2309 18.9402C65.6783 18.9525 66.6433 18.2721 67.1752 17.4804L67.2 16.9484C67.2 16.9484 66.4453 17.5917 65.1093 17.5794C63.7732 17.567 63.1546 16.3175 63.2041 15.1794L67.4845 15.2041C67.6701 13.3732 67.0144 11.0721 64.367 11.0598ZM64.6144 14.4866C64.3917 14.4866 63.2289 14.4742 63.2289 14.4742C63.2784 13.3361 63.501 11.8639 64.4289 11.8763C65.1835 11.8763 65.3938 12.7422 65.3938 13.633C65.3938 14.4618 64.8247 14.4866 64.6144 14.4866Z" fill="#101010"/>
<path fill-rule="evenodd" clip-rule="evenodd" d="M14.2763 30C15.4763 30 16.466 29.0227 16.466 27.8351H16.4783V2.16495C16.4783 0.97732 15.4887 0 14.2887 0H2.18969C0.989691 0 0 0.97732 0 2.16495V27.8351C0 29.0227 0.989691 30 2.18969 30H14.2763ZM6.06179 12.7671C5.65354 13.1753 5.52983 13.5217 5.39375 14.1279C5.39375 14.1371 5.39202 14.155 5.38922 14.184C5.38451 14.2328 5.37676 14.3131 5.36901 14.4372C5.34426 15.1176 5.59169 15.7856 6.06179 16.2928L9.50097 12.8784C9.32777 12.7547 9.11746 12.6186 8.87004 12.4702C8.4989 12.2475 8.07828 12.1238 7.64529 12.1238C7.05148 12.1238 6.49478 12.3464 6.07416 12.7547L6.06179 12.7671ZM12.1236 13.9547C12.5814 14.7464 12.7669 15.5011 12.6803 16.2186C12.5814 16.998 12.2597 17.6537 11.703 18.1856C11.0845 18.7918 10.3546 19.1629 9.50097 19.2867C9.64942 19.398 9.73602 19.4722 9.73602 19.4722C10.4535 20.066 10.9855 20.6351 11.3319 21.1671C11.6783 21.7114 11.8515 22.2434 11.8515 22.7629C11.8515 23.6166 11.4803 24.3093 10.7381 24.8289C10.0082 25.3485 9.03086 25.6083 7.80612 25.6083C6.77931 25.6083 5.95045 25.3856 5.29478 24.9403C4.63911 24.4825 4.31746 23.9135 4.31746 23.2207C4.31746 22.7506 4.46591 22.3794 4.73808 22.1073C5.01024 21.8227 5.38138 21.6867 5.83911 21.6867C6.19787 21.6867 6.50715 21.8104 6.75457 22.0578C7.00199 22.3052 7.12571 22.6145 7.12571 22.9733C7.12571 23.2702 7.002 23.5423 6.76694 23.8021C6.53189 24.0495 6.40818 24.2227 6.40818 24.2846C6.40818 24.4825 6.54426 24.6557 6.80406 24.7918C7.06385 24.9279 7.39787 24.9897 7.83086 24.9897C8.43705 24.9897 8.91952 24.8537 9.26591 24.5691C9.6123 24.2846 9.7855 23.8887 9.7855 23.4062C9.7855 22.7629 9.0556 21.8227 7.57107 20.5733L7.54632 20.5485L5.51746 18.8166C5.46606 18.7694 5.41466 18.7238 5.36377 18.6786C5.26768 18.5933 5.17343 18.5096 5.08447 18.4207L5.0721 18.4083L5.05973 18.3959L4.91127 18.2475L4.92364 18.2351C4.57725 17.8269 4.32983 17.4805 4.13189 17.0599C3.62468 15.9959 3.53808 14.4001 4.76282 13.0021C5.38138 12.3093 6.0123 11.8887 6.59375 11.6537C7.02674 11.4434 7.50921 11.332 8.0288 11.3196H8.10303C7.44736 10.7753 6.86591 10.3052 6.86591 10.3052C6.14839 9.7114 5.61643 9.1547 5.27004 8.61037C4.92364 8.06604 4.75045 7.54645 4.75045 7.01449C4.75045 6.16088 5.12158 5.4681 5.86385 4.94851C6.59375 4.42892 7.58344 4.16913 8.79581 4.16913C9.82261 4.16913 10.6515 4.39181 11.3071 4.83717C11.9628 5.28253 12.2845 5.86397 12.2845 6.55676C12.2845 7.02686 12.1484 7.38562 11.8762 7.67016C11.5917 7.9547 11.2329 8.09078 10.7752 8.09078C10.4041 8.09078 10.0948 7.96707 9.84736 7.71964C9.59993 7.47222 9.47622 7.16294 9.47622 6.80418C9.47622 6.50727 9.59993 6.23511 9.83498 5.97531C10.07 5.71552 10.1937 5.5547 10.1937 5.49284C10.1937 5.28253 10.0577 5.12171 9.79787 4.98562C9.53808 4.86191 9.19169 4.78769 8.77107 4.78769C8.16488 4.78769 7.68241 4.93614 7.33602 5.22067C6.98962 5.50521 6.81643 5.88872 6.81643 6.38356C6.81643 7.01449 7.54632 7.96707 9.03086 9.20418L9.04323 9.22892L11.0721 10.9609C11.2948 11.1588 11.5298 11.3691 11.7154 11.5547L10.1566 13.1011L6.47004 16.7506C6.51727 16.7935 6.56451 16.8379 6.61277 16.8833C6.70357 16.9688 6.79802 17.0576 6.90303 17.1465C7.03447 17.2552 7.19413 17.3889 7.37047 17.5366C7.67545 17.7919 8.03029 18.089 8.37519 18.3712C8.53602 18.5073 8.74633 18.5939 8.95663 18.5939C10.0082 18.5939 10.6515 18.3588 11.2577 17.7526C11.703 17.3196 11.9628 16.7629 12.0494 16.132C12.1236 15.5877 11.9752 14.9815 11.6288 14.3506L11.5793 14.2516L11.9752 13.7073L12.1236 13.9547Z" fill="#B90500"/>
</g>
<defs>
<clipPath id="clip0">
<rect width="92.4124" height="30" fill="white"/>
</clipPath>
</defs>
</svg>
